<svg version="1.1" id="Layer_1" xmlns="http://www.w3.org/2000/svg" xmlns:xlink="http://www.w3.org/1999/xlink" x="0px" y="0px"
	 viewBox="0 0 96 112" style="enable-background:new 0 0 96 112;" xml:space="preserve">
<style type="text/css">
	.st0{fill:#fff;}
</style>
<g id="Group-5" transform="translate(133.000000, 170.000000)">
	<path id="G-s" class="st0" d="M-105.9-105.5c-0.8,1.3-2.2,2.4-4.2,3.4s-4.6,1.6-7.8,1.6c-4.1,0-7.4-1.3-10.1-3.9s-4-6-4-10.1v-7
		c0-4.1,1.2-7.5,3.7-10.1s5.7-3.9,9.6-3.9s7,1,9.2,2.9s3.4,4.4,3.4,7.4v0.1h-4.4c-0.1-2-0.9-3.6-2.3-4.9s-3.3-1.9-5.9-1.9
		s-4.7,1-6.3,2.9s-2.4,4.4-2.4,7.4v7.1c0,3,0.9,5.5,2.7,7.5s4,2.9,6.8,2.9c1.9,0,3.5-0.3,4.8-0.8s2.1-1.1,2.6-1.8v-7.8h-7.5v-3.6
		h12.1L-105.9-105.5L-105.9-105.5z M48.3-109.5c0-1.6-0.6-2.9-1.8-3.9s-3.3-1.9-6.2-2.7c-3.6-0.9-6.4-2.1-8.4-3.8s-3-3.8-3-6.3
		c0-2.7,1.1-4.9,3.3-6.7s5-2.7,8.5-2.7c3.7,0,6.7,1,8.9,3.1s3.3,4.4,3.2,7.1v0.1h-4.4c0-2-0.7-3.6-2-4.9s-3.2-1.9-5.7-1.9
		c-2.3,0-4.1,0.5-5.3,1.6s-1.8,2.4-1.8,4.1c0,1.5,0.7,2.7,2,3.7s3.5,1.9,6.5,2.6c3.6,0.9,6.3,2.2,8.2,3.9s2.8,3.9,2.8,6.4
		c0,2.8-1.1,5-3.4,6.6s-5.2,2.5-8.8,2.5c-3.4,0-6.4-0.9-9-2.8s-3.9-4.3-3.8-7.4v-0.1h4.4c0,2.2,0.8,3.9,2.4,5c1.6,1.1,3.6,1.7,6,1.7
		c2.3,0,4.2-0.5,5.5-1.5C47.6-106.5,48.3-107.9,48.3-109.5z"/>
	<polygon id="l" class="st0" points="-35.9,-100.9 -40.6,-100.9 -40.6,-137.5 -35.9,-137.5 	"/>
	<path id="Explorer" class="st0" d="M-118.6-67.6h-9.1v6.2h10.6v3.4h-15v-21.9h14.9v3.4h-10.6v5.5h9.1L-118.6-67.6L-118.6-67.6z
		 M-101.6-72.1l4.1-7.7h5.1L-98.9-69l6.9,11h-5.3l-4.2-7.9l-4.2,7.9h-5.1l6.7-11l-6.5-10.8h5.1L-101.6-72.1z M-80.2-65.9v7.9h-4.4
		v-21.9h8.7c2.5,0,4.5,0.6,5.9,1.9s2.2,3,2.2,5.1s-0.7,3.8-2.2,5c-1.4,1.3-3.4,1.9-5.9,1.9L-80.2-65.9L-80.2-65.9z M-80.2-69.3h4.3
		c1.2,0,2.1-0.3,2.8-1c0.6-0.7,0.9-1.5,0.9-2.5c0-1.1-0.3-1.9-0.9-2.6s-1.6-1-2.8-1h-4.3V-69.3z M-55-61.3h9.7v3.4h-14.1v-21.9h4.4
		V-61.3L-55-61.3z M-21-66.9c0,2.7-0.8,4.9-2.5,6.7s-3.9,2.6-6.6,2.6s-4.9-0.9-6.6-2.6s-2.5-4-2.5-6.7v-3.9c0-2.7,0.8-4.9,2.5-6.6
		c1.7-1.8,3.9-2.6,6.6-2.6s4.9,0.9,6.6,2.6c1.7,1.8,2.6,4,2.6,6.6L-21-66.9L-21-66.9z M-25.3-70.9c0-1.7-0.4-3.1-1.3-4.2
		s-2-1.6-3.5-1.6s-2.6,0.5-3.5,1.6c-0.8,1.1-1.2,2.5-1.2,4.2v4c0,1.7,0.4,3.1,1.2,4.2c0.8,1.1,2,1.6,3.5,1.6s2.7-0.5,3.5-1.6
		s1.3-2.5,1.3-4.2V-70.9z M-8-66.7v8.7h-4.4v-21.9h8.2c2.5,0,4.4,0.6,5.8,1.7s2.1,2.7,2.1,4.8c0,1.1-0.3,2.1-0.9,2.9s-1.5,1.5-2.6,2
		c1.3,0.4,2.2,1,2.8,1.9s0.8,2,0.8,3.3v1.6c0,0.6,0.1,1.2,0.2,1.9c0.2,0.7,0.4,1.2,0.8,1.5v0.3H0.3c-0.4-0.3-0.7-0.9-0.8-1.6
		c-0.1-0.8-0.2-1.5-0.2-2.1v-1.5c0-1.1-0.3-1.9-0.9-2.5s-1.4-0.9-2.5-0.9H-8V-66.7z M-8-70.1h3.8c1.2,0,2.1-0.3,2.8-0.8
		c0.6-0.5,0.9-1.3,0.9-2.3s-0.3-1.8-0.9-2.4s-1.5-0.9-2.7-0.9H-8V-70.1L-8-70.1z M26.5-67.6h-9.1v6.2H28v3.4H13v-21.9h14.9v3.4H17.3
		v5.5h9.1L26.5-67.6L26.5-67.6z M40.2-66.7v8.7h-4.4v-21.9H44c2.5,0,4.4,0.6,5.8,1.7s2.1,2.7,2.1,4.8c0,1.1-0.3,2.1-0.9,2.9
		c-0.6,0.8-1.5,1.5-2.6,2c1.3,0.4,2.2,1,2.8,1.9s0.8,2,0.8,3.3v1.6c0,0.6,0.1,1.2,0.2,1.9c0.2,0.7,0.4,1.2,0.8,1.5v0.3h-4.5
		c-0.4-0.3-0.7-0.9-0.8-1.6c-0.1-0.8-0.2-1.5-0.2-2.1v-1.5c0-1.1-0.3-1.9-0.9-2.5s-1.4-0.9-2.5-0.9h-3.9
		C40.2-66.6,40.2-66.7,40.2-66.7z M40.2-70.1H44c1.2,0,2.1-0.3,2.8-0.8s0.9-1.3,0.9-2.3s-0.3-1.8-0.9-2.4s-1.5-0.9-2.7-0.9h-3.9
		L40.2-70.1L40.2-70.1z"/>
	<path id="Fill-1" class="st0" d="M-2.2-96.7c-11.9,0-21.5-9.7-21.5-21.7c0-11.9,9.7-21.7,21.5-21.7s21.5,9.7,21.5,21.7
		S9.7-96.7-2.2-96.7z M-23.7-162.3c0-2.2,1.7-3.9,3.9-3.9c1,0,1.9,0.4,2.6,1c-2.5,1.1-4.8,2.7-6.5,4.9V-162.3z M-0.1-156.6
		c0.2,0.4,4.9,8.2,9.3,15.7c-3.4-1.8-7.3-2.8-11.4-2.8c-9.1,0-17.1,4.9-21.5,12.2v-18.4c0-7.1,5.7-12.8,12.8-12.8
		C-6.5-162.8-2.4-160.5-0.1-156.6z M-11-166.5c-0.8,0-1.6,0.1-2.4,0.2c-1.4-2.3-3.8-3.6-6.5-3.6c-4.2,0-7.6,3.4-7.6,7.6v13.3v25.7v5
		c0,14,11.3,25.4,25.2,25.4s25.2-11.4,25.2-25.4c0-4-0.9-7.8-2.6-11.2c-0.8-1.5-17-28.4-17.4-29.1C0.1-163.5-5.2-166.5-11-166.5z"/>
	<path id="Fill-5" class="st0" d="M-2.2-104.7c-7.6,0-13.7-6.2-13.7-13.7c0-7.6,6.2-13.7,13.7-13.7c7.6,0,13.7,6.2,13.7,13.7
		C11.5-110.9,5.3-104.7-2.2-104.7z M-2.2-135.9c-9.6,0-17.5,7.9-17.5,17.5s7.9,17.5,17.5,17.5s17.5-7.9,17.5-17.5
		S7.4-135.9-2.2-135.9z"/>
	<path id="Fill-1_1_" class="st0" d="M-74.5-96.7c-11.9,0-21.5-9.7-21.5-21.7c0-11.9,9.7-21.7,21.5-21.7c11.9,0,21.5,9.7,21.5,21.7
		C-52.9-106.4-62.6-96.7-74.5-96.7z M-59.4-165.2c0.7-0.6,1.6-1,2.6-1c2.1,0,3.9,1.8,3.9,3.9v1.9C-54.7-162.5-56.9-164.2-59.4-165.2
		z M-49.2-149v-13.3c0-4.2-3.4-7.6-7.6-7.6c-2.6,0-5.1,1.4-6.5,3.6c-0.8-0.1-1.6-0.2-2.4-0.2c-5.8,0-11,2.9-14,7.9
		c0,0.1-0.2,0.3-3.2,5.4c-0.5,0.9-0.2,2,0.6,2.6c0.9,0.5,2,0.2,2.5-0.6c2.5-4.2,3.1-5.3,3.2-5.4c2.3-3.8,6.4-6.1,10.9-6.1
		c7,0,12.8,5.8,12.8,12.8v18.4c-4.4-7.3-12.4-12.2-21.5-12.2c-4.1,0-8,1-11.4,2.8c0.9-1.5,1.8-3.1,2.7-4.6c0.5-0.9,0.2-2-0.6-2.6
		c-0.9-0.5-2-0.2-2.5,0.6c-3.9,6.6-10.1,16.6-10.9,18.3c-1.6,3.3-2.5,7-2.5,10.9c0,14,11.3,25.4,25.2,25.4s25.2-11.4,25.2-25.4v-5
		C-49.2-123.3-49.2-149-49.2-149z"/>
	<path id="Fill-5_1_" class="st0" d="M-74.2-104.7c-7.6,0-13.7-6.2-13.7-13.7c0-7.6,6.2-13.7,13.7-13.7c7.6,0,13.7,6.2,13.7,13.7
		C-60.5-110.9-66.7-104.7-74.2-104.7z M-74.2-135.9c-9.6,0-17.5,7.9-17.5,17.5s7.9,17.5,17.5,17.5s17.5-7.9,17.5-17.5
		S-64.6-135.9-74.2-135.9z"/>
</g>
</svg>