<?xml version="1.0" standalone="no"?>
<!DOCTYPE svg PUBLIC "-//W3C//DTD SVG 20010904//EN"
 "http://www.w3.org/TR/2001/REC-SVG-20010904/DTD/svg10.dtd">
<svg version="1.0" xmlns="http://www.w3.org/2000/svg"
 width="512.000000pt" height="512.000000pt" viewBox="0 0 512.000000 512.000000"
 preserveAspectRatio="xMidYMid meet">
<metadata>
Created by potrace 1.11, written by Peter Selinger 2001-2013
</metadata>
<g transform="translate(0.000000,512.000000) scale(0.100000,-0.100000)"
fill="#000000" stroke="none">
<path d="M2008 4393 c-1 -4 -20 -17 -41 -27 -21 -11 -60 -41 -87 -68 l-49 -48
-91 0 c-98 0 -230 -18 -230 -31 0 -5 -7 -6 -15 -3 -8 4 -15 1 -15 -5 0 -6 -5
-11 -12 -11 -6 0 -49 -18 -96 -41 -65 -31 -101 -58 -161 -117 -69 -70 -151
-183 -151 -210 0 -6 -6 -15 -14 -19 -7 -4 -34 -47 -60 -95 -55 -103 -61 -160
-23 -196 23 -22 76 -29 112 -16 18 7 89 113 129 194 52 104 177 250 214 250 6
0 13 7 16 16 3 8 10 13 15 10 5 -4 11 -1 13 4 2 6 35 22 73 37 93 34 244 43
331 19 76 -21 134 -47 134 -58 0 -5 5 -6 10 -3 6 3 10 1 10 -4 0 -6 7 -11 15
-11 22 0 156 -137 189 -192 15 -26 37 -77 48 -115 20 -64 22 -93 26 -508 2
-242 1 -438 -1 -435 -3 3 -28 36 -57 73 -53 70 -147 167 -162 167 -4 0 -13 9
-20 20 -7 11 -16 20 -20 20 -4 0 -36 20 -72 44 -35 25 -82 54 -104 65 -51 26
-210 81 -234 81 -10 0 -18 5 -18 11 0 7 -10 9 -25 7 -13 -3 -26 0 -28 6 -5 15
-429 15 -434 0 -2 -6 -15 -9 -28 -6 -15 2 -25 0 -25 -7 0 -6 -8 -11 -17 -11
-10 0 -55 -13 -100 -28 -46 -16 -83 -27 -83 -26 0 2 22 40 50 86 52 86 60 124
39 172 -14 30 -67 50 -108 41 -35 -8 -62 -40 -129 -160 -28 -50 -60 -101 -71
-114 -12 -13 -21 -28 -21 -32 0 -9 -59 -108 -125 -209 -23 -36 -45 -73 -48
-83 -4 -9 -26 -48 -50 -85 -105 -162 -197 -379 -197 -465 0 -9 -4 -17 -10 -17
-6 0 -10 -73 -10 -200 0 -127 4 -200 10 -200 6 0 10 -8 10 -18 0 -86 110 -345
195 -462 41 -55 226 -250 239 -250 2 0 31 -18 64 -40 33 -22 65 -40 71 -40 6
0 11 -5 11 -11 0 -5 4 -7 10 -4 5 3 10 1 10 -5 0 -6 4 -8 10 -5 6 3 10 2 10
-3 0 -17 164 -75 248 -88 23 -4 42 -10 42 -15 0 -5 101 -9 225 -9 125 0 225 4
225 9 0 5 17 12 38 15 85 16 242 72 242 88 0 5 5 6 10 3 6 -3 10 -1 10 5 0 6
5 8 10 5 6 -3 10 -1 10 4 0 6 6 11 13 11 21 0 138 84 210 150 121 112 215 237
262 351 15 35 35 80 44 99 23 45 48 145 61 245 7 53 10 450 8 1170 l-3 1090
-24 45 c-25 48 -116 151 -125 142 -3 -2 -8 2 -12 11 -3 9 -19 19 -35 22 -16 4
-29 10 -29 15 0 10 -247 13 -252 3z m171 -193 c70 -20 121 -94 121 -175 l0
-30 -51 53 c-28 28 -55 52 -60 52 -5 0 -9 5 -9 10 0 6 -4 10 -9 10 -6 0 -35
15 -66 34 l-55 33 32 10 c44 14 57 15 97 3z m-693 -1180 c73 -12 208 -52 212
-62 2 -5 8 -6 13 -2 5 3 9 0 9 -6 0 -6 5 -8 10 -5 6 3 10 2 10 -3 0 -5 21 -18
48 -29 163 -69 381 -319 447 -514 74 -217 72 -512 -5 -686 -11 -25 -20 -51
-20 -58 0 -6 -9 -23 -21 -36 -11 -13 -26 -37 -33 -54 -29 -68 -220 -275 -254
-275 -5 0 -12 -6 -15 -14 -6 -16 -204 -116 -230 -116 -9 0 -17 -5 -17 -11 0
-5 -5 -7 -11 -3 -6 3 -14 1 -18 -5 -12 -19 -157 -41 -274 -41 -113 0 -277 25
-277 42 0 5 -6 8 -12 7 -14 -3 -40 8 -161 66 -43 20 -81 43 -84 51 -3 8 -9 12
-13 9 -17 -10 -190 168 -250 257 -161 239 -201 544 -109 838 33 106 64 167
139 264 27 37 50 71 50 77 0 5 3 9 8 9 4 0 34 25 67 56 66 62 170 134 191 134
8 0 14 5 14 10 0 6 7 10 15 10 8 0 15 4 15 10 0 5 7 7 15 4 8 -4 15 -1 15 6 0
6 5 8 10 5 6 -3 10 -2 10 4 0 11 82 37 180 56 80 16 246 19 326 5z"/>
<path d="M1220 2859 c-80 -13 -140 -30 -140 -41 0 -5 -4 -7 -9 -4 -5 3 -37 -9
-72 -27 -96 -50 -113 -61 -122 -74 -4 -7 -11 -13 -15 -13 -17 0 -123 -111
-172 -180 -105 -148 -134 -248 -134 -460 1 -138 3 -164 26 -236 30 -94 46
-127 101 -208 38 -56 187 -213 187 -198 0 4 6 0 13 -8 17 -22 143 -85 200
-100 26 -7 47 -16 47 -20 0 -12 133 -30 220 -30 87 0 220 18 220 30 0 4 21 13
48 20 137 37 307 172 411 326 167 247 158 636 -20 889 -32 45 -155 175 -167
175 -2 0 -10 7 -16 14 -13 17 -194 109 -246 124 -97 30 -250 38 -360 21z m307
-219 c99 -31 145 -59 248 -149 54 -48 145 -195 145 -235 0 -8 5 -16 10 -18 6
-2 16 -45 22 -95 10 -73 9 -109 -1 -170 -7 -43 -16 -80 -20 -83 -5 -3 -16 -27
-26 -54 -10 -27 -35 -74 -55 -105 -38 -59 -154 -171 -177 -171 -7 0 -21 -9
-30 -19 -9 -11 -20 -18 -25 -15 -4 3 -8 1 -8 -4 0 -5 -33 -20 -72 -33 -103
-34 -271 -34 -375 0 -40 12 -73 27 -73 33 0 5 -4 6 -10 3 -5 -3 -10 -1 -10 4
0 6 -7 11 -15 11 -8 0 -15 5 -15 10 0 6 -7 10 -15 10 -23 0 -145 119 -184 180
-20 31 -47 91 -60 135 -13 44 -27 88 -32 97 -12 24 -11 175 1 183 6 3 10 14
10 25 0 35 48 158 79 205 17 25 31 48 31 50 0 2 23 26 51 52 103 97 206 152
322 173 74 13 211 3 284 -20z"/>
<path d="M2850 4390 c0 -4 -12 -10 -27 -13 -16 -3 -48 -24 -73 -46 -25 -22
-48 -41 -52 -41 -4 0 -24 -35 -45 -77 l-38 -78 0 -1105 c0 -1022 1 -1112 18
-1195 23 -116 32 -144 74 -235 69 -150 99 -198 187 -299 31 -36 56 -68 56 -73
0 -4 6 -8 14 -8 7 0 30 -18 50 -40 20 -22 38 -40 40 -40 2 0 40 -25 85 -55 45
-30 81 -52 81 -49 0 3 7 -1 15 -9 19 -20 175 -76 248 -90 31 -6 57 -14 57 -19
0 -4 101 -8 225 -8 124 0 225 4 225 9 0 5 21 12 47 16 59 9 243 74 243 87 0 5
5 6 10 3 6 -3 10 -1 10 5 0 6 4 9 9 6 5 -3 11 1 15 9 3 8 12 15 19 15 8 0 39
18 71 40 31 22 59 40 60 40 2 0 41 37 85 81 122 121 203 233 243 334 9 22 28
66 43 99 15 32 32 85 38 117 6 33 14 59 19 59 4 0 8 104 8 230 0 147 -4 230
-10 230 -5 0 -10 9 -10 21 0 25 -29 130 -40 144 -4 6 -24 47 -44 93 -20 46
-56 114 -80 151 -24 37 -61 98 -81 137 -20 38 -43 74 -51 80 -8 6 -14 15 -14
19 0 9 -97 173 -116 195 -6 8 -29 47 -49 85 -21 39 -57 99 -80 135 -23 36 -59
97 -80 135 -20 39 -43 74 -51 78 -8 4 -14 13 -14 19 0 10 -38 76 -114 198 -23
36 -52 87 -66 114 -56 109 -223 255 -332 292 -27 8 -48 20 -48 26 0 6 -9 8
-20 5 -11 -3 -22 -1 -25 3 -9 15 -139 32 -224 28 l-83 -3 -54 54 c-30 30 -54
51 -54 46 0 -5 -9 1 -20 13 -12 12 -27 22 -35 22 -8 0 -15 5 -15 10 0 7 -44
10 -125 9 -69 0 -125 -5 -125 -9z m169 -191 c17 -6 31 -14 31 -17 0 -4 -26
-20 -58 -37 -31 -16 -65 -39 -74 -50 -10 -11 -17 -17 -18 -13 0 4 -20 -14 -45
-40 l-45 -47 0 30 c0 80 41 147 105 170 49 17 64 18 104 4z m486 -160 c64 -16
145 -51 145 -61 0 -5 5 -6 10 -3 6 3 13 -1 16 -9 3 -9 12 -16 18 -16 16 0 120
-104 137 -138 8 -15 20 -33 27 -41 7 -7 24 -36 39 -65 14 -28 51 -91 83 -141
31 -49 72 -118 90 -152 18 -35 37 -63 41 -63 5 0 9 -5 9 -11 0 -6 23 -48 50
-94 28 -46 50 -87 50 -93 0 -5 7 -13 16 -16 9 -4 15 -9 12 -12 -3 -2 -29 5
-58 16 -29 11 -75 26 -101 31 -27 6 -49 15 -49 21 0 6 -11 8 -25 6 -13 -3 -26
0 -28 6 -5 15 -429 15 -434 0 -2 -6 -15 -9 -28 -6 -15 2 -25 0 -25 -7 0 -6 -8
-11 -18 -11 -39 0 -276 -90 -292 -112 -8 -10 -111 -78 -119 -78 -3 0 -12 -9
-19 -20 -7 -11 -16 -20 -20 -20 -15 0 -111 -97 -162 -165 -29 -39 -56 -73 -59
-77 -3 -4 -3 192 0 435 5 407 7 447 26 507 11 36 30 85 42 108 27 53 143 177
182 194 16 7 29 16 29 20 0 12 54 36 127 57 77 22 224 27 288 10z m430 -1023
c89 -16 188 -46 193 -58 2 -5 8 -6 13 -2 5 3 9 0 9 -6 0 -6 5 -8 10 -5 6 3 10
2 10 -3 0 -5 19 -17 43 -27 168 -73 381 -313 453 -512 57 -156 71 -387 34
-551 -23 -104 -62 -216 -83 -236 -8 -9 -24 -35 -36 -59 -27 -57 -115 -161
-183 -220 -30 -26 -58 -47 -61 -47 -3 0 -17 -11 -31 -24 -30 -27 -166 -94
-208 -103 -15 -3 -28 -10 -28 -15 0 -5 -5 -6 -11 -2 -6 3 -14 1 -18 -5 -12
-19 -157 -41 -274 -41 -113 0 -277 25 -277 42 0 5 -6 8 -12 7 -25 -5 -237 99
-252 123 -6 10 -17 18 -24 18 -23 0 -187 172 -237 250 -117 180 -168 399 -145
625 25 240 125 438 303 602 90 84 148 125 206 149 22 9 41 20 41 26 0 5 5 6
10 3 6 -3 10 -1 10 5 0 6 5 8 10 5 6 -3 10 -2 10 2 0 11 103 42 190 59 91 17
240 17 335 0z"/>
<path d="M3620 2855 c-41 -7 -88 -18 -105 -24 -65 -25 -217 -106 -222 -118 -3
-7 -8 -13 -12 -13 -16 0 -132 -120 -175 -183 -53 -76 -84 -141 -111 -237 -15
-52 -19 -97 -19 -220 1 -138 3 -164 26 -236 32 -99 58 -152 112 -223 22 -29
50 -66 61 -80 10 -14 26 -30 35 -35 8 -5 30 -24 48 -42 17 -17 32 -29 32 -25
0 3 6 -1 13 -9 17 -22 143 -85 200 -100 26 -7 47 -16 47 -20 0 -12 133 -30
220 -30 87 0 220 18 220 30 0 4 21 13 48 20 88 24 182 82 272 167 159 152 229
289 253 495 22 193 -20 377 -121 528 -52 79 -164 200 -184 200 -5 0 -11 7 -14
15 -4 8 -9 15 -13 15 -4 0 -45 20 -91 45 -45 24 -87 42 -91 39 -5 -3 -9 -1 -9
4 0 20 -176 52 -280 51 -36 -1 -99 -7 -140 -14z m327 -215 c81 -25 115 -43
185 -97 110 -84 194 -211 218 -328 6 -33 16 -68 21 -77 12 -23 12 -133 0 -156
-5 -9 -15 -39 -21 -67 -23 -101 -77 -195 -161 -277 -43 -43 -85 -78 -93 -78
-9 0 -24 -10 -36 -22 -11 -12 -20 -18 -20 -12 0 5 -4 4 -8 -2 -4 -6 -38 -22
-77 -35 -98 -34 -267 -34 -372 -1 -40 13 -73 27 -73 33 0 6 -4 7 -10 4 -5 -3
-10 -1 -10 4 0 6 -7 11 -15 11 -8 0 -15 5 -15 10 0 6 -7 10 -15 10 -23 0 -145
120 -187 185 -21 32 -44 79 -50 102 -6 24 -14 43 -18 43 -12 0 -30 107 -30
175 0 68 16 166 28 174 4 4 14 25 22 49 7 23 28 65 47 93 18 28 33 54 33 57 0
8 88 85 141 124 58 42 129 75 189 87 30 6 64 13 75 15 41 10 192 -5 252 -24z"/>
</g>
</svg>
